<svg width="241" height="240" viewBox="0 0 241 240" fill="none" xmlns="http://www.w3.org/2000/svg">
<path d="M197.287 40.6711C197.287 40.6711 165.689 13.7417 124.371 17.4555C83.0526 21.1694 71.4448 41.1319 58.4437 62.9486C48.2128 80.1243 42.9739 100.334 36.5008 119.106C30.5982 136.293 18.557 153.249 20.3344 172.202C22.589 196.175 46.1721 211.792 68.1424 215.66C98.8021 221.052 117.514 199.504 140.669 183.475L140.801 183.382C144.129 181.044 147.629 178.963 151.273 177.156C180.062 163.227 209.773 175.296 221.38 142.338C232.988 109.38 218.133 63.4148 197.287 40.6711Z" fill="#54E27C"/>
<path opacity="0.75" d="M197.287 40.6711C197.287 40.6711 165.689 13.7417 124.371 17.4555C83.0526 21.1694 71.4448 41.1319 58.4437 62.9486C48.2128 80.1243 42.9739 100.334 36.5008 119.106C30.5982 136.293 18.557 153.249 20.3344 172.202C22.589 196.175 46.1721 211.792 68.1424 215.66C98.8021 221.052 117.514 199.504 140.669 183.475L140.801 183.382C144.129 181.044 147.629 178.963 151.273 177.156C180.062 163.227 209.773 175.296 221.38 142.338C232.988 109.38 218.133 63.4148 197.287 40.6711Z" fill="white"/>
<path d="M167.439 74.1998C165.13 72.9435 164.077 73.9913 163.237 72.9435C162.398 71.8958 165.547 69.1584 159.244 66.432C159.244 66.432 158.827 60.5458 150.214 60.3374C141.602 60.1289 143.911 66.2181 141.602 67.6882C139.292 69.1584 138.661 66.8489 136.352 68.3191C134.042 69.7893 135.09 72.7077 133.197 73.152C131.305 73.5963 128.809 71.2594 126.477 72.7296C124.146 74.1998 124.168 75.4725 123.115 75.4725C122.061 75.4725 119.966 74.6331 118.726 75.4725C117.486 76.3118 115.983 77.365 115.983 77.365H169.129C169.129 77.365 169.749 75.4615 167.439 74.1998Z" fill="#54E27C"/>
<path d="M147.565 36.2332C146.007 35.3774 145.293 36.0905 144.728 35.3774C144.163 34.6642 146.286 32.8265 142.035 30.9888C142.035 30.9888 141.75 27.0226 135.94 26.88C130.131 26.7374 131.683 30.8517 130.125 31.8172C128.568 32.7826 128.14 31.2686 126.582 32.245C125.024 33.2215 125.731 35.2238 124.453 35.5036C123.175 35.7833 121.48 34.2309 119.917 35.2238C118.353 36.2167 118.359 37.067 117.651 37.067C116.943 37.067 115.522 36.5184 114.672 37.067C113.822 37.6156 112.829 38.3397 112.829 38.3397H148.7C148.7 38.3397 149.122 37.0834 147.565 36.2332Z" fill="#54E27C"/>
<path d="M186.941 41.1703C184.626 39.9086 183.578 40.9618 182.739 39.9086C181.9 38.8553 185.048 36.1289 178.745 33.397C178.745 33.397 178.328 27.5163 169.716 27.3079C161.103 27.0994 163.413 33.1886 161.081 34.6587C158.75 36.1289 158.141 33.8194 155.831 35.2896C153.522 36.7598 154.57 39.6782 152.677 40.117C150.785 40.5559 148.289 38.2299 145.957 39.7001C143.626 41.1703 143.648 42.443 142.594 42.443C141.541 42.443 139.446 41.5982 138.206 42.443C136.966 43.2878 135.463 44.3301 135.463 44.3301H188.62C188.62 44.3301 189.25 42.432 186.941 41.1703Z" fill="#54E27C"/>
<path d="M117.294 55.0985C114.985 53.8368 113.932 54.8901 113.092 53.8368C112.253 52.7836 115.402 50.0572 109.099 47.3253C109.099 47.3253 108.682 41.4446 100.069 41.2361C91.4567 41.0277 93.7661 47.1168 91.4567 48.587C89.1472 50.0572 88.5163 47.7477 86.2068 49.2178C83.8973 50.688 84.9451 53.6064 83.0525 54.0508C81.16 54.4951 78.664 52.1582 76.3325 53.6283C74.0011 55.0985 74.0231 56.3712 72.9698 56.3712C71.9166 56.3712 69.821 55.5319 68.5812 56.3712C67.3415 57.2105 65.8384 58.2583 65.8384 58.2583H118.984C118.984 58.2583 119.604 56.3657 117.294 55.0985Z" fill="#54E27C"/>
<g opacity="0.4">
<path d="M167.439 74.1998C165.13 72.9435 164.077 73.9913 163.237 72.9435C162.398 71.8958 165.547 69.1584 159.244 66.432C159.244 66.432 158.827 60.5458 150.214 60.3374C141.602 60.1289 143.911 66.2181 141.602 67.6882C139.292 69.1584 138.661 66.8489 136.352 68.3191C134.042 69.7893 135.09 72.7077 133.197 73.152C131.305 73.5963 128.809 71.2594 126.477 72.7296C124.146 74.1998 124.168 75.4725 123.115 75.4725C122.061 75.4725 119.966 74.6331 118.726 75.4725C117.486 76.3118 115.983 77.365 115.983 77.365H169.129C169.129 77.365 169.749 75.4615 167.439 74.1998Z" fill="white"/>
<path d="M147.565 36.2332C146.007 35.3774 145.293 36.0905 144.728 35.3774C144.163 34.6642 146.286 32.8265 142.035 30.9888C142.035 30.9888 141.75 27.0226 135.94 26.88C130.131 26.7374 131.683 30.8517 130.125 31.8172C128.568 32.7826 128.14 31.2686 126.582 32.245C125.024 33.2215 125.731 35.2238 124.453 35.5036C123.175 35.7833 121.48 34.2309 119.917 35.2238C118.353 36.2167 118.359 37.067 117.651 37.067C116.943 37.067 115.522 36.5184 114.672 37.067C113.822 37.6156 112.829 38.3397 112.829 38.3397H148.7C148.7 38.3397 149.122 37.0834 147.565 36.2332Z" fill="white"/>
<path d="M186.941 41.1703C184.626 39.9086 183.578 40.9618 182.739 39.9086C181.9 38.8553 185.048 36.1289 178.745 33.397C178.745 33.397 178.328 27.5163 169.716 27.3079C161.103 27.0994 163.413 33.1886 161.081 34.6587C158.75 36.1289 158.141 33.8194 155.831 35.2896C153.522 36.7598 154.57 39.6782 152.677 40.117C150.785 40.5559 148.289 38.2299 145.957 39.7001C143.626 41.1703 143.648 42.443 142.594 42.443C141.541 42.443 139.446 41.5982 138.206 42.443C136.966 43.2878 135.463 44.3301 135.463 44.3301H188.62C188.62 44.3301 189.25 42.432 186.941 41.1703Z" fill="white"/>
<path d="M117.294 55.0985C114.985 53.8368 113.932 54.8901 113.092 53.8368C112.253 52.7836 115.402 50.0572 109.099 47.3253C109.099 47.3253 108.682 41.4446 100.069 41.2361C91.4567 41.0277 93.7661 47.1168 91.4567 48.587C89.1472 50.0572 88.5163 47.7477 86.2068 49.2178C83.8973 50.688 84.9451 53.6064 83.0525 54.0508C81.16 54.4951 78.664 52.1582 76.3325 53.6283C74.0011 55.0985 74.0231 56.3712 72.9698 56.3712C71.9166 56.3712 69.821 55.5319 68.5812 56.3712C67.3415 57.2105 65.8384 58.2583 65.8384 58.2583H118.984C118.984 58.2583 119.604 56.3657 117.294 55.0985Z" fill="white"/>
</g>
<path d="M146.813 126.769H119.67V191.66H146.813V126.769Z" fill="white" stroke="#263238" stroke-linecap="round" stroke-linejoin="round"/>
<path d="M146.813 126.769H119.67V129.979H146.813V126.769Z" fill="white" stroke="#263238" stroke-linecap="round" stroke-linejoin="round"/>
<path d="M119.67 133.775H126.521C127.583 133.775 128.602 134.197 129.353 134.948C130.104 135.699 130.526 136.717 130.526 137.779V141.219H119.67V133.775Z" fill="#263238" stroke="#263238" stroke-linecap="round" stroke-linejoin="round"/>
<path d="M135.781 133.775H146.27V141.219H131.777V137.779C131.777 136.717 132.199 135.699 132.95 134.948C133.701 134.197 134.719 133.775 135.781 133.775V133.775Z" fill="#263238" stroke="#263238" stroke-linecap="round" stroke-linejoin="round"/>
<path d="M146.813 141.032H119.67V144.241H146.813V141.032Z" fill="white" stroke="#263238" stroke-linecap="round" stroke-linejoin="round"/>
<path d="M119.67 145.882H126.521C127.583 145.882 128.602 146.304 129.353 147.055C130.104 147.806 130.526 148.824 130.526 149.886V153.326H119.67V145.882Z" fill="#263238" stroke="#263238" stroke-linecap="round" stroke-linejoin="round"/>
<path d="M135.781 145.882H146.27V153.326H131.777V149.886C131.777 148.824 132.199 147.806 132.95 147.055C133.701 146.304 134.719 145.882 135.781 145.882V145.882Z" fill="#263238" stroke="#263238" stroke-linecap="round" stroke-linejoin="round"/>
<path d="M146.813 153.134H119.67V156.343H146.813V153.134Z" fill="white" stroke="#263238" stroke-linecap="round" stroke-linejoin="round"/>
<path d="M119.67 157.989H126.521C127.583 157.989 128.602 158.41 129.353 159.161C130.104 159.912 130.526 160.931 130.526 161.993V165.433H119.67V157.989Z" fill="#263238" stroke="#263238" stroke-linecap="round" stroke-linejoin="round"/>
<path d="M135.781 157.989H146.27V165.433H131.777V161.993C131.777 160.931 132.199 159.912 132.95 159.161C133.701 158.41 134.719 157.989 135.781 157.989V157.989Z" fill="#263238" stroke="#263238" stroke-linecap="round" stroke-linejoin="round"/>
<path d="M146.813 165.241H119.67V168.45H146.813V165.241Z" fill="white" stroke="#263238" stroke-linecap="round" stroke-linejoin="round"/>
<path d="M119.67 170.096H126.521C127.583 170.096 128.602 170.517 129.353 171.268C130.104 172.019 130.526 173.038 130.526 174.1V177.54H119.67V170.096Z" fill="#263238" stroke="#263238" stroke-linecap="round" stroke-linejoin="round"/>
<path d="M135.781 170.096H146.27V177.54H131.777V174.1C131.777 173.038 132.199 172.019 132.95 171.268C133.701 170.517 134.719 170.096 135.781 170.096V170.096Z" fill="#263238" stroke="#263238" stroke-linecap="round" stroke-linejoin="round"/>
<path d="M146.813 177.348H119.67V180.557H146.813V177.348Z" fill="white" stroke="#263238" stroke-linecap="round" stroke-linejoin="round"/>
<path d="M122.632 107.52H102.17V192.806H122.632V107.52Z" fill="white" stroke="#263238" stroke-linecap="round" stroke-linejoin="round"/>
<path d="M120.01 177.633H117.574V180.88H120.01V177.633Z" fill="#263238" stroke="#263238" stroke-linecap="round" stroke-linejoin="round"/>
<path d="M113.306 177.633H110.871V180.88H113.306V177.633Z" fill="#263238" stroke="#263238" stroke-linecap="round" stroke-linejoin="round"/>
<path d="M106.608 177.633H104.173V180.88H106.608V177.633Z" fill="#263238" stroke="#263238" stroke-linecap="round" stroke-linejoin="round"/>
<path d="M120.01 164.84H117.574V168.088H120.01V164.84Z" fill="#263238" stroke="#263238" stroke-linecap="round" stroke-linejoin="round"/>
<path d="M113.306 164.84H110.871V168.088H113.306V164.84Z" fill="#263238" stroke="#263238" stroke-linecap="round" stroke-linejoin="round"/>
<path d="M106.608 164.84H104.173V168.088H106.608V164.84Z" fill="#263238" stroke="#263238" stroke-linecap="round" stroke-linejoin="round"/>
<path d="M120.01 151.845H117.574V155.092H120.01V151.845Z" fill="#263238" stroke="#263238" stroke-linecap="round" stroke-linejoin="round"/>
<path d="M113.306 151.845H110.871V155.092H113.306V151.845Z" fill="#263238" stroke="#263238" stroke-linecap="round" stroke-linejoin="round"/>
<path d="M106.608 151.845H104.173V155.092H106.608V151.845Z" fill="#263238" stroke="#263238" stroke-linecap="round" stroke-linejoin="round"/>
<path d="M120.01 138.849H117.574V142.096H120.01V138.849Z" fill="#263238" stroke="#263238" stroke-linecap="round" stroke-linejoin="round"/>
<path d="M113.306 138.849H110.871V142.096H113.306V138.849Z" fill="#263238" stroke="#263238" stroke-linecap="round" stroke-linejoin="round"/>
<path d="M106.608 138.849H104.173V142.096H106.608V138.849Z" fill="#263238" stroke="#263238" stroke-linecap="round" stroke-linejoin="round"/>
<path d="M120.01 125.853H117.574V129.101H120.01V125.853Z" fill="#263238" stroke="#263238" stroke-linecap="round" stroke-linejoin="round"/>
<path d="M113.306 125.853H110.871V129.101H113.306V125.853Z" fill="#263238" stroke="#263238" stroke-linecap="round" stroke-linejoin="round"/>
<path d="M106.608 125.853H104.173V129.101H106.608V125.853Z" fill="#263238" stroke="#263238" stroke-linecap="round" stroke-linejoin="round"/>
<path d="M120.01 112.858H117.574V116.105H120.01V112.858Z" fill="#263238" stroke="#263238" stroke-linecap="round" stroke-linejoin="round"/>
<path d="M113.306 112.858H110.871V116.105H113.306V112.858Z" fill="#263238" stroke="#263238" stroke-linecap="round" stroke-linejoin="round"/>
<path d="M106.608 112.858H104.173V116.105H106.608V112.858Z" fill="#263238" stroke="#263238" stroke-linecap="round" stroke-linejoin="round"/>
<path d="M123.263 107.52H101.534V110.016H123.263V107.52Z" fill="white" stroke="#263238" stroke-linecap="round" stroke-linejoin="round"/>
<path d="M123.263 120.313H101.534V122.809H123.263V120.313Z" fill="white" stroke="#263238" stroke-linecap="round" stroke-linejoin="round"/>
<path d="M123.263 133.105H101.534V135.601H123.263V133.105Z" fill="white" stroke="#263238" stroke-linecap="round" stroke-linejoin="round"/>
<path d="M123.263 145.898H101.534V148.394H123.263V145.898Z" fill="white" stroke="#263238" stroke-linecap="round" stroke-linejoin="round"/>
<path d="M123.263 158.691H101.534V161.187H123.263V158.691Z" fill="white" stroke="#263238" stroke-linecap="round" stroke-linejoin="round"/>
<path d="M123.263 171.483H101.534V173.979H123.263V171.483Z" fill="white" stroke="#263238" stroke-linecap="round" stroke-linejoin="round"/>
<path d="M122.632 182.855H102.17V185.351H122.632V182.855Z" fill="white" stroke="#263238" stroke-linecap="round" stroke-linejoin="round"/>
<path d="M146.813 179.597H101.09V191.665H146.813V179.597Z" fill="white" stroke="#263238" stroke-linecap="round" stroke-linejoin="round"/>
<path d="M119.533 179.597H101.09V191.665H119.533V179.597Z" fill="#263238" stroke="#263238" stroke-linecap="round" stroke-linejoin="round"/>
<path d="M216.268 49.7829H139.32V191.665H216.268V49.7829Z" fill="#263238" stroke="#263238" stroke-linecap="round" stroke-linejoin="round"/>
<path d="M216.268 49.7829H159.655V191.665H216.268V49.7829Z" fill="white" stroke="#263238" stroke-linecap="round" stroke-linejoin="round"/>
<path d="M216.268 178.105H173.079V191.665H216.268V178.105Z" fill="#263238" stroke="#263238" stroke-linecap="round" stroke-linejoin="round"/>
<path d="M185.416 178.105H183.068V191.665H185.416V178.105Z" fill="white" stroke="#263238" stroke-linecap="round" stroke-linejoin="round"/>
<path d="M197.545 178.105H195.197V191.665H197.545V178.105Z" fill="white" stroke="#263238" stroke-linecap="round" stroke-linejoin="round"/>
<path d="M209.668 178.105H207.32V191.665H209.668V178.105Z" fill="white" stroke="#263238" stroke-linecap="round" stroke-linejoin="round"/>
<path d="M181.208 178.105V50.112" stroke="#263238" stroke-linecap="round" stroke-linejoin="round"/>
<path d="M152.315 192.148V50.112" stroke="white" stroke-linecap="round" stroke-linejoin="round"/>
<path d="M145.315 192.148V50.112" stroke="white" stroke-linecap="round" stroke-linejoin="round"/>
<path d="M202.707 178.105V50.112" stroke="#263238" stroke-linecap="round" stroke-linejoin="round"/>
<path d="M159.946 64.6656H215.939" stroke="#263238" stroke-linecap="round" stroke-linejoin="round"/>
<path d="M159.946 83.5145H215.939" stroke="#263238" stroke-linecap="round" stroke-linejoin="round"/>
<path d="M159.946 102.369H215.939" stroke="#263238" stroke-linecap="round" stroke-linejoin="round"/>
<path d="M159.946 121.218H215.939" stroke="#263238" stroke-linecap="round" stroke-linejoin="round"/>
<path d="M159.946 140.072H215.939" stroke="#263238" stroke-linecap="round" stroke-linejoin="round"/>
<path d="M159.946 158.921H215.939" stroke="#263238" stroke-linecap="round" stroke-linejoin="round"/>
<path d="M159.946 64.6656H139.226" stroke="white" stroke-linecap="round" stroke-linejoin="round"/>
<path d="M159.946 83.5145H139.226" stroke="white" stroke-linecap="round" stroke-linejoin="round"/>
<path d="M159.946 102.369H139.226" stroke="white" stroke-linecap="round" stroke-linejoin="round"/>
<path d="M159.946 121.218H139.226" stroke="white" stroke-linecap="round" stroke-linejoin="round"/>
<path d="M159.946 140.072H139.226" stroke="white" stroke-linecap="round" stroke-linejoin="round"/>
<path d="M159.946 158.921H139.226" stroke="white" stroke-linecap="round" stroke-linejoin="round"/>
<path d="M139.539 177.776H215.938" stroke="#263238" stroke-linecap="round" stroke-linejoin="round"/>
<path d="M104.184 58.2693H36.627V191.66H104.184V58.2693Z" fill="#263238" stroke="#263238" stroke-linecap="round" stroke-linejoin="round"/>
<path d="M56.0136 72.5376H36.9672" stroke="white" stroke-linecap="round" stroke-linejoin="round"/>
<path d="M56.0136 95.2101H36.9672" stroke="white" stroke-linecap="round" stroke-linejoin="round"/>
<path d="M56.0136 118.755H36.9672" stroke="white" stroke-linecap="round" stroke-linejoin="round"/>
<path d="M56.0136 143.177H36.9672" stroke="white" stroke-linecap="round" stroke-linejoin="round"/>
<path d="M56.0136 165.85H36.9672" stroke="white" stroke-linecap="round" stroke-linejoin="round"/>
<path d="M104.184 58.2693H55.9531V191.66H104.184V58.2693Z" fill="white" stroke="#263238" stroke-linecap="round" stroke-linejoin="round"/>
<path d="M104.184 58.2693H55.9531V65.7737H104.184V58.2693Z" fill="#263238" stroke="#263238" stroke-linecap="round" stroke-linejoin="round"/>
<path d="M104.184 81.6219H55.9531V89.1264H104.184V81.6219Z" fill="#263238" stroke="#263238" stroke-linecap="round" stroke-linejoin="round"/>
<path d="M104.184 105.551H55.9531V113.055H104.184V105.551Z" fill="#263238" stroke="#263238" stroke-linecap="round" stroke-linejoin="round"/>
<path d="M104.184 128.898H55.9531V136.402H104.184V128.898Z" fill="#263238" stroke="#263238" stroke-linecap="round" stroke-linejoin="round"/>
<path d="M104.184 176.678H55.9531V183.097H104.184V176.678Z" fill="#263238" stroke="#263238" stroke-linecap="round" stroke-linejoin="round"/>
<path d="M104.184 152.251H55.9531V159.755H104.184V152.251Z" fill="#263238" stroke="#263238" stroke-linecap="round" stroke-linejoin="round"/>
<path d="M88.5822 178.544H69.2999V191.665H88.5822V178.544Z" fill="#263238" stroke="#263238" stroke-linecap="round" stroke-linejoin="round"/>
<path d="M64.851 62.3671V177.803" stroke="#263238" stroke-linecap="round" stroke-linejoin="round"/>
<path d="M79.6843 62.3671V177.803" stroke="#263238" stroke-linecap="round" stroke-linejoin="round"/>
<path d="M94.5122 62.3671V177.803" stroke="#263238" stroke-linecap="round" stroke-linejoin="round"/>
<path d="M41.8658 62.3671V177.803" stroke="white" stroke-linecap="round" stroke-linejoin="round"/>
<path d="M46.5616 62.3671V177.803" stroke="white" stroke-linecap="round" stroke-linejoin="round"/>
<path d="M51.2574 62.3671V177.803" stroke="white" stroke-linecap="round" stroke-linejoin="round"/>
<path d="M106.378 56.7387H34.0432V63.1131H106.378V56.7387Z" fill="#263238" stroke="#263238" stroke-linecap="round" stroke-linejoin="round"/>
<path d="M106.372 56.7387H53.726V63.1131H106.372V56.7387Z" fill="white" stroke="#263238" stroke-linecap="round" stroke-linejoin="round"/>
<path d="M106.378 80.4645H34.0432V86.8389H106.378V80.4645Z" fill="#263238" stroke="#263238" stroke-linecap="round" stroke-linejoin="round"/>
<path d="M106.372 80.4645H53.726V86.8389H106.372V80.4645Z" fill="white" stroke="#263238" stroke-linecap="round" stroke-linejoin="round"/>
<path d="M106.378 104.196H34.0432V110.57H106.378V104.196Z" fill="#263238" stroke="#263238" stroke-linecap="round" stroke-linejoin="round"/>
<path d="M106.372 104.196H53.726V110.57H106.372V104.196Z" fill="white" stroke="#263238" stroke-linecap="round" stroke-linejoin="round"/>
<path d="M106.378 127.921H34.0432V134.296H106.378V127.921Z" fill="#263238" stroke="#263238" stroke-linecap="round" stroke-linejoin="round"/>
<path d="M106.372 127.921H53.726V134.296H106.372V127.921Z" fill="white" stroke="#263238" stroke-linecap="round" stroke-linejoin="round"/>
<path d="M106.378 151.653H34.0432V158.027H106.378V151.653Z" fill="#263238" stroke="#263238" stroke-linecap="round" stroke-linejoin="round"/>
<path d="M106.372 151.653H53.726V158.027H106.372V151.653Z" fill="white" stroke="#263238" stroke-linecap="round" stroke-linejoin="round"/>
<path d="M106.378 175.384H34.0432V181.758H106.378V175.384Z" fill="#263238" stroke="#263238" stroke-linecap="round" stroke-linejoin="round"/>
<path d="M106.372 175.384H53.726V181.758H106.372V175.384Z" fill="white" stroke="#263238" stroke-linecap="round" stroke-linejoin="round"/>
<path d="M56.0135 72.5376H103.772" stroke="#263238" stroke-linecap="round" stroke-linejoin="round"/>
<path d="M56.0135 95.2101H103.772" stroke="#263238" stroke-linecap="round" stroke-linejoin="round"/>
<path d="M56.0135 118.755H103.772" stroke="#263238" stroke-linecap="round" stroke-linejoin="round"/>
<path d="M56.0135 143.177H103.772" stroke="#263238" stroke-linecap="round" stroke-linejoin="round"/>
<path d="M56.0135 165.85H103.772" stroke="#263238" stroke-linecap="round" stroke-linejoin="round"/>
<path d="M100.859 188.237H56.1451V189.811H100.859V188.237Z" fill="#54E27C" stroke="#263238" stroke-linecap="round" stroke-linejoin="round"/>
<path d="M114.052 189.811H56.1451V192.176H114.052V189.811Z" fill="#54E27C" stroke="#263238" stroke-linecap="round" stroke-linejoin="round"/>
<path d="M51.1422 176.349C51.1422 176.349 59.0416 177.134 63.0462 182.032C63.0462 182.032 67.2757 176.355 74.8789 176.47C76.7353 174.229 77.9169 171.507 78.2863 168.621C78.6557 165.734 78.1976 162.802 76.9653 160.166C75.733 157.53 73.7773 155.298 71.3258 153.731C68.8743 152.163 66.0279 151.324 63.118 151.311C60.2081 151.298 57.3545 152.112 54.8893 153.658C52.4241 155.205 50.4489 157.419 49.1935 160.044C47.9381 162.67 47.4543 165.597 47.7983 168.487C48.1423 171.376 49.3 174.109 51.1367 176.366L51.1422 176.349Z" fill="#54E27C"/>
<path opacity="0.5" d="M51.1422 176.349C51.1422 176.349 59.0416 177.134 63.0462 182.032C63.0462 182.032 67.2757 176.355 74.8789 176.47C76.7353 174.229 77.9169 171.507 78.2863 168.621C78.6557 165.734 78.1976 162.802 76.9653 160.166C75.733 157.53 73.7773 155.298 71.3258 153.731C68.8743 152.163 66.0279 151.324 63.118 151.311C60.2081 151.298 57.3545 152.112 54.8893 153.658C52.4241 155.205 50.4489 157.419 49.1935 160.044C47.9381 162.67 47.4543 165.597 47.7983 168.487C48.1423 171.376 49.3 174.109 51.1367 176.366L51.1422 176.349Z" fill="white"/>
<path d="M62.7828 152.399L62.5195 192.005H63.8526L62.7828 152.399Z" fill="#263238"/>
<path d="M63.1833 180.535C63.1833 180.535 65.8548 175.735 70.6548 174.27C70.6548 174.27 65.586 175.472 63.0516 179.602L63.1833 180.535Z" fill="#263238"/>
<path d="M63.1833 166.936C63.1833 166.936 65.8548 162.13 70.6548 160.666C70.6548 160.666 65.586 161.867 63.0516 165.998L63.1833 166.936Z" fill="#263238"/>
<path d="M63.1833 173.76C63.1833 173.76 65.8548 168.955 70.6548 167.49C70.6548 167.49 65.586 168.691 63.0516 172.822L63.1833 173.76Z" fill="#263238"/>
<path d="M62.7883 170.403C62.7883 170.403 60.2155 165.603 55.5856 164.133C55.5856 164.133 60.4733 165.334 62.92 169.47L62.7883 170.403Z" fill="#263238"/>
<path d="M62.7883 177.051C62.7883 177.051 60.2155 172.251 55.5856 170.787C55.5856 170.787 60.4733 171.988 62.92 176.119L62.7883 177.051Z" fill="#263238"/>
<path d="M88.3573 173.349C88.3573 173.349 97.7708 174.281 102.549 180.118C102.549 180.118 107.59 173.354 116.647 173.491C118.858 170.821 120.265 167.578 120.704 164.14C121.143 160.701 120.597 157.209 119.129 154.069C117.66 150.929 115.331 148.27 112.41 146.403C109.49 144.535 106.099 143.536 102.633 143.52C99.1665 143.505 95.767 144.474 92.8301 146.315C89.8932 148.157 87.5397 150.794 86.0434 153.921C84.5472 157.048 83.9698 160.536 84.3785 163.978C84.7871 167.42 86.165 170.675 88.3518 173.365L88.3573 173.349Z" fill="#54E27C"/>
<path opacity="0.5" d="M88.3573 173.349C88.3573 173.349 97.7708 174.281 102.549 180.118C102.549 180.118 107.59 173.354 116.647 173.491C118.858 170.821 120.265 167.578 120.704 164.14C121.143 160.701 120.597 157.209 119.129 154.069C117.66 150.929 115.331 148.27 112.41 146.403C109.49 144.535 106.099 143.536 102.633 143.52C99.1665 143.505 95.767 144.474 92.8301 146.315C89.8932 148.157 87.5397 150.794 86.0434 153.921C84.5472 157.048 83.9698 160.536 84.3785 163.978C84.7871 167.42 86.165 170.675 88.3518 173.365L88.3573 173.349Z" fill="white"/>
<path d="M102.236 144.801L101.918 192.005H103.503L102.236 144.801Z" fill="#263238"/>
<path d="M102.713 178.335C102.713 178.335 105.89 172.613 111.611 170.869C111.611 170.869 105.577 172.295 102.554 177.227L102.713 178.335Z" fill="#263238"/>
<path d="M102.713 162.125C102.713 162.125 105.89 156.403 111.611 154.653C111.611 154.653 105.577 156.085 102.554 161.011L102.713 162.125Z" fill="#263238"/>
<path d="M102.713 170.233C102.713 170.233 105.89 164.511 111.611 162.761C111.611 162.761 105.577 164.193 102.554 169.119L102.713 170.233Z" fill="#263238"/>
<path d="M102.242 166.256C102.242 166.256 99.1751 160.534 93.651 158.789C93.651 158.789 99.4823 160.216 102.395 165.147L102.242 166.256Z" fill="#263238"/>
<path d="M102.242 174.204C102.242 174.204 99.1751 168.483 93.651 166.733C93.651 166.733 99.4823 168.165 102.395 173.091L102.242 174.204Z" fill="#263238"/>
<path d="M126.258 178.801C126.258 178.801 132.929 179.46 136.302 183.59C137.516 182.119 139.041 180.936 140.768 180.125C142.494 179.313 144.379 178.895 146.286 178.9C147.852 177.01 148.849 174.714 149.161 172.279C149.472 169.844 149.086 167.371 148.046 165.147C147.007 162.923 145.357 161.04 143.289 159.718C141.221 158.396 138.82 157.688 136.365 157.677C133.91 157.666 131.503 158.353 129.424 159.657C127.344 160.961 125.678 162.83 124.619 165.044C123.56 167.259 123.152 169.728 123.442 172.166C123.732 174.603 124.709 176.908 126.258 178.812V178.801Z" fill="#54E27C"/>
<path opacity="0.5" d="M126.258 178.801C126.258 178.801 132.929 179.46 136.302 183.59C137.516 182.119 139.041 180.936 140.768 180.125C142.494 179.313 144.379 178.895 146.286 178.9C147.852 177.01 148.849 174.714 149.161 172.279C149.472 169.844 149.086 167.371 148.046 165.147C147.007 162.923 145.357 161.04 143.289 159.718C141.221 158.396 138.82 157.688 136.365 157.677C133.91 157.666 131.503 158.353 129.424 159.657C127.344 160.961 125.678 162.83 124.619 165.044C123.56 167.259 123.152 169.728 123.442 172.166C123.732 174.603 124.709 176.908 126.258 178.812V178.801Z" fill="white"/>
<path d="M136.083 158.592L135.858 192.005H136.983L136.083 158.592Z" fill="#263238"/>
<path d="M136.423 182.329C136.423 182.329 138.672 178.28 142.721 177.046C142.721 177.046 138.447 178.055 136.308 181.544L136.423 182.329Z" fill="#263238"/>
<path d="M136.423 170.858C136.423 170.858 138.672 166.804 142.721 165.57C142.721 165.57 138.447 166.579 136.308 170.068L136.423 170.858Z" fill="#263238"/>
<path d="M136.423 176.596C136.423 176.596 138.672 172.542 142.721 171.308C142.721 171.308 138.447 172.317 136.308 175.806L136.423 176.596Z" fill="#263238"/>
<path d="M136.088 173.76C136.088 173.76 133.894 169.706 130.01 168.472C130.01 168.472 134.136 169.481 136.198 172.97L136.088 173.76Z" fill="#263238"/>
<path d="M136.088 179.405C136.088 179.405 133.894 175.356 130.01 174.117C130.01 174.117 134.136 175.131 136.198 178.62L136.088 179.405Z" fill="#263238"/>
<path d="M167.017 160.622H166.041V191.462H167.017V160.622Z" fill="white" stroke="#263238" stroke-linecap="round" stroke-linejoin="round"/>
<path d="M164.85 160.836C164.816 160.91 164.797 160.99 164.795 161.072C164.795 161.62 165.591 162.075 166.567 162.075C167.544 162.075 168.334 161.626 168.334 161.072C168.332 160.99 168.313 160.91 168.279 160.836H164.85Z" fill="white" stroke="#263238" stroke-linecap="round" stroke-linejoin="round"/>
<path d="M166.529 159.782L163.007 160.956H170.051L166.529 159.782Z" fill="white" stroke="#263238" stroke-linecap="round" stroke-linejoin="round"/>
<path d="M208.001 160.622H207.024V191.462H208.001V160.622Z" fill="white" stroke="#263238" stroke-linecap="round" stroke-linejoin="round"/>
<path d="M205.828 160.836C205.794 160.91 205.775 160.99 205.774 161.072C205.774 161.62 206.569 162.075 207.546 162.075C208.522 162.075 209.312 161.626 209.312 161.072C209.31 160.99 209.291 160.91 209.257 160.836H205.828Z" fill="white" stroke="#263238" stroke-linecap="round" stroke-linejoin="round"/>
<path d="M207.507 159.782L203.985 160.956H211.034L207.507 159.782Z" fill="white" stroke="#263238" stroke-linecap="round" stroke-linejoin="round"/>
<path d="M85.0604 160.622H84.084V191.462H85.0604V160.622Z" fill="white" stroke="#263238" stroke-linecap="round" stroke-linejoin="round"/>
<path d="M82.8936 160.836C82.8593 160.91 82.8406 160.99 82.8387 161.072C82.8387 161.62 83.6287 162.075 84.6106 162.075C85.5926 162.075 86.377 161.626 86.377 161.072C86.3752 160.99 86.3565 160.91 86.3222 160.836H82.8936Z" fill="white" stroke="#263238" stroke-linecap="round" stroke-linejoin="round"/>
<path d="M84.5722 159.782L81.0504 160.956H88.0941L84.5722 159.782Z" fill="white" stroke="#263238" stroke-linecap="round" stroke-linejoin="round"/>
<path d="M44.0822 160.622H43.1057V191.462H44.0822V160.622Z" fill="white" stroke="#263238" stroke-linecap="round" stroke-linejoin="round"/>
<path d="M41.9153 160.836C41.881 160.91 41.8623 160.99 41.8605 161.072C41.8605 161.62 42.6504 162.075 43.6269 162.075C44.6033 162.075 45.3988 161.626 45.3988 161.072C45.3969 160.99 45.3782 160.91 45.3439 160.836H41.9153Z" fill="white" stroke="#263238" stroke-linecap="round" stroke-linejoin="round"/>
<path d="M43.594 159.782L40.0721 160.956H47.1158L43.594 159.782Z" fill="white" stroke="#263238" stroke-linecap="round" stroke-linejoin="round"/>
<path d="M126.039 160.622H125.062V191.462H126.039V160.622Z" fill="white" stroke="#263238" stroke-linecap="round" stroke-linejoin="round"/>
<path d="M123.872 160.836C123.838 160.91 123.819 160.99 123.817 161.072C123.817 161.62 124.612 162.075 125.589 162.075C126.565 162.075 127.355 161.626 127.355 161.072C127.353 160.99 127.335 160.91 127.3 160.836H123.872Z" fill="white" stroke="#263238" stroke-linecap="round" stroke-linejoin="round"/>
<path d="M125.551 159.782L122.029 160.956H129.072L125.551 159.782Z" fill="white" stroke="#263238" stroke-linecap="round" stroke-linejoin="round"/>
</svg>
