<svg width="112" height="103" viewBox="0 0 112 103" fill="none" xmlns="http://www.w3.org/2000/svg">
<g clip-path="url(#clip0_42720_372403)">
<path d="M39.3399 37.6122L112 0.564419V102.154H0V57.7666L39.3399 37.6122Z" fill="#13BF49"/>
<path d="M22.5886 77.1453C24.0479 77.1453 25.1952 77.5972 26.0312 78.501C26.8668 79.4048 27.2849 80.6609 27.2849 82.2691V89.1861H23.6723V82.696C23.6723 81.9417 23.4706 81.3548 23.0668 80.9349C22.6629 80.515 22.1141 80.305 21.42 80.3053C20.6976 80.3053 20.1272 80.5293 19.7095 80.9777C19.2916 81.426 19.0827 82.0559 19.0827 82.867V89.186H15.4493V82.696C15.4493 81.9417 15.2509 81.3548 14.8544 80.9349C14.4578 80.515 13.9121 80.305 13.2178 80.3053C12.4954 80.3053 11.9216 80.5258 11.4966 80.9669C11.0717 81.4082 10.8592 82.0415 10.8592 82.8667V89.186H7.22559V79.0941L10.8592 77.2734V79.3017C11.1647 78.6397 11.6654 78.0881 12.2936 77.7218C12.938 77.3375 13.6925 77.1453 14.5566 77.1453C15.4633 77.1453 16.2636 77.3553 16.9578 77.7752C17.655 78.1986 18.2043 78.8287 18.5301 79.5791C18.9299 78.8507 19.5123 78.2401 20.2195 77.8075C20.9314 77.3671 21.7526 77.1377 22.5886 77.1453ZM32.4482 77.2734L35.2958 84.5747L37.9517 77.2734H41.9679L34.5731 94.8647H30.5785L33.3621 88.7377L28.3902 77.2734H32.4482ZM47.684 77.1241C48.5906 77.1241 49.3696 77.3304 50.0214 77.7431C50.6605 78.1412 51.1585 78.7312 51.4451 79.4298V72.2957L55.0786 70.2931V89.186H51.4451V87.0298C51.1585 87.7282 50.6605 88.3184 50.0214 88.7163C49.3696 89.129 48.5906 89.3354 47.684 89.3354C46.7065 89.3354 45.8316 89.0898 45.0597 88.5989C44.2876 88.1079 43.6784 87.3999 43.2323 86.4747C42.7859 85.5497 42.5629 84.4679 42.5629 83.2296C42.5629 81.9773 42.7859 80.892 43.2323 79.974C43.6784 79.056 44.2876 78.3515 45.0597 77.8605C45.8316 77.3696 46.7065 77.1241 47.684 77.1241ZM48.8526 80.3263C48.0736 80.3263 47.4467 80.5825 46.9721 81.0947C46.4973 81.6072 46.2602 82.3187 46.2602 83.2295C46.2602 84.1403 46.4976 84.8518 46.9721 85.364C47.4465 85.8762 48.0735 86.1325 48.8526 86.1331C49.6175 86.1331 50.2444 85.8697 50.733 85.3431C51.2218 84.8165 51.4664 84.1122 51.4664 83.2296C51.4664 82.3331 51.2218 81.6251 50.733 81.1056C50.2444 80.5861 49.6175 80.3263 48.8526 80.3263ZM63.1317 77.1241C64.3074 77.1241 65.3593 77.3696 66.2872 77.8605C67.2052 78.3421 67.9651 79.0796 68.4758 79.9849C69.0071 80.91 69.2727 81.9915 69.2727 83.2296C69.2727 84.4679 69.0071 85.5497 68.4758 86.4747C67.9651 87.3798 67.2052 88.1176 66.2872 88.5989C65.3593 89.0901 64.3074 89.3354 63.1317 89.3354C61.9559 89.3354 60.9005 89.0901 59.9655 88.5989C59.043 88.1199 58.2789 87.382 57.7661 86.4747C57.2351 85.5497 56.9696 84.4679 56.9696 83.2296C56.9696 81.9915 57.2353 80.91 57.7665 79.9849C58.2793 79.0775 59.0433 78.3395 59.9659 77.8605C60.9008 77.3696 61.9563 77.1241 63.1317 77.1241ZM63.1317 80.2836C62.8027 80.2776 62.4761 80.342 62.1738 80.4726C61.8714 80.6034 61.6005 80.7973 61.3786 81.0415C60.9042 81.5466 60.6669 82.2763 60.6669 83.2296C60.6669 84.1834 60.9042 84.9092 61.3786 85.4073C61.6021 85.6487 61.8737 85.8401 62.1758 85.9689C62.4778 86.0977 62.8036 86.1609 63.1317 86.1546C63.4582 86.1615 63.7827 86.0985 64.0832 85.9697C64.3836 85.8409 64.6532 85.6492 64.874 85.4073C65.3416 84.9092 65.5754 84.1834 65.5754 83.2296C65.5754 82.2763 65.3416 81.5466 64.8744 81.0415C64.6551 80.797 64.386 80.6027 64.0853 80.4719C63.7844 80.341 63.4592 80.2768 63.1317 80.2836ZM86.5273 77.1453C87.9863 77.1453 89.1339 77.5972 89.9698 78.501C90.8055 79.4048 91.2235 80.6609 91.2235 82.2691V89.1861H87.6111V82.696C87.6111 81.9417 87.4093 81.3548 87.0054 80.9349C86.6019 80.515 86.0528 80.305 85.3585 80.3053C84.636 80.3053 84.0659 80.5293 83.648 80.9777C83.23 81.426 83.0211 82.0559 83.0211 82.867V89.186H79.3875V82.696C79.3875 81.9417 79.1891 81.3548 78.7925 80.9349C78.396 80.515 77.8506 80.305 77.1566 80.3053C76.4341 80.3053 75.8605 80.5258 75.4355 80.9669C75.0104 81.4082 74.798 82.0415 74.798 82.867V89.186H71.1641V79.0941L74.7976 77.2734V79.3017C75.1031 78.6397 75.6039 78.0881 76.2321 77.7218C76.8765 77.3375 77.6308 77.1456 78.495 77.1456C79.4017 77.1456 80.2019 77.3555 80.896 77.7754C81.5934 78.1987 82.1429 78.8289 82.4687 79.5791C82.8684 78.8507 83.4508 78.2401 84.1579 77.8075C84.8701 77.3671 85.6912 77.1377 86.5273 77.1453Z" fill="white"/>
<path d="M97.5483 89.0454C99.1445 89.0454 100.439 87.7411 100.439 86.1324C100.439 84.5237 99.1445 83.2194 97.5483 83.2194C95.9518 83.2194 94.658 84.5237 94.658 86.1324C94.658 87.7411 95.9518 89.0454 97.5483 89.0454Z" fill="white"/>
</g>
<defs>
<clipPath id="clip0_42720_372403">
<rect width="112" height="103" fill="white"/>
</clipPath>
</defs>
</svg>
