<svg width="135" height="130" viewBox="0 0 135 130" fill="none" xmlns="http://www.w3.org/2000/svg">
<path d="M60.7029 127.322C92.7624 127.322 118.752 99.9552 118.752 66.1968C118.752 32.4384 92.7624 5.07178 60.7029 5.07178C28.6434 5.07178 2.65405 32.4384 2.65405 66.1968C2.65405 99.9552 28.6434 127.322 60.7029 127.322Z" fill="#C3D4DC"/>
<path fill-rule="evenodd" clip-rule="evenodd" d="M60.703 7.75013C30.2149 7.75013 5.30824 33.8089 5.30824 66.1971C5.30824 98.5853 30.2149 124.644 60.703 124.644C91.1911 124.644 116.098 98.5853 116.098 66.1971C116.098 33.8089 91.1911 7.75013 60.703 7.75013ZM0 66.1971C0 31.0685 27.0721 2.39404 60.703 2.39404C94.3339 2.39404 121.406 31.0685 121.406 66.1971C121.406 101.326 94.3339 130 60.703 130C27.0721 130 0 101.326 0 66.1971Z" fill="#314851"/>
<path d="M74.2967 124.928C106.356 124.928 132.346 97.5616 132.346 63.8032C132.346 30.0448 106.356 2.67822 74.2967 2.67822C42.2372 2.67822 16.2478 30.0448 16.2478 63.8032C16.2478 97.5616 42.2372 124.928 74.2967 124.928Z" fill="white"/>
<path fill-rule="evenodd" clip-rule="evenodd" d="M74.2968 5.35609C43.8087 5.35609 18.902 31.4148 18.902 63.803C18.902 96.1912 43.8087 122.25 74.2968 122.25C104.785 122.25 129.692 96.1912 129.692 63.803C129.692 31.4148 104.785 5.35609 74.2968 5.35609ZM13.5938 63.803C13.5938 28.6744 40.6659 0 74.2968 0C107.928 0 135 28.6744 135 63.803C135 98.9316 107.928 127.606 74.2968 127.606C40.6659 127.606 13.5938 98.9316 13.5938 63.803Z" fill="#314851"/>
<path d="M46.6547 8.92535C55.5797 6.03679 64.9279 4.70692 74.2964 4.99305C74.8174 4.99305 75.317 4.78423 75.6854 4.41253C76.0537 4.04084 76.2607 3.5367 76.2607 3.01104C76.2607 2.48538 76.0537 1.98125 75.6854 1.60955C75.317 1.23785 74.8174 1.02904 74.2964 1.02904C64.5724 0.760038 54.874 2.1649 45.6176 5.18332C43.229 5.99198 44.2504 9.81329 46.6547 9.00463V8.92535Z" fill="#314851"/>
<path d="M46.4501 127.084C59.9648 130.146 74.032 129.66 87.3075 125.673C87.8097 125.532 88.2359 125.195 88.4923 124.737C88.7487 124.279 88.8142 123.737 88.6746 123.231C88.535 122.724 88.2016 122.294 87.7478 122.035C87.294 121.777 86.7568 121.71 86.2546 121.851C73.6951 125.682 60.3667 126.169 47.5659 123.262C45.0987 122.755 44.0458 126.576 46.5287 127.084H46.4501Z" fill="#314851"/>
<path d="M56.3881 32.3492C56.3881 32.3492 47.4842 24.0794 43.2998 31.3909C39.1154 38.7025 44.4321 41.8201 44.4321 41.8201C44.4321 41.8201 64.2946 63.8474 64.2533 64.3713C64.2119 64.8952 47.3229 87.5895 47.3229 87.5895C47.3229 87.5895 44.085 95.7457 49.7738 98.8071C55.4627 101.868 58.5194 97.6402 58.5194 97.6402L77.0386 74.1188L94.8816 92.8885C94.8816 92.8885 100.679 97.4501 105.446 93.3575C110.214 89.2649 107.259 83.9243 103.834 81.9251C100.408 79.926 84.693 61.7549 84.693 61.7549L103.727 40.8804C103.727 40.8804 108.201 33.7695 103.333 31.452C98.4657 29.1344 96.6591 29.1247 95.1404 30.4723C93.6218 31.8199 75.467 54.4424 75.467 54.4424L56.3881 32.3492Z" fill="#F41111"/>
<path d="M76.4156 53.9024L94.4061 32.3572C95.214 31.3921 93.6079 30.2771 92.8045 31.2347L74.8179 52.7803C74.0099 53.7454 75.6161 54.8603 76.4156 53.9024Z" fill="#C40000"/>
<path d="M85.3039 62.418L104.305 41.5974C105.14 40.6818 103.886 39.1745 103.037 40.1048L84.0371 60.9215C83.2015 61.841 84.4561 63.3444 85.3039 62.418Z" fill="#C40000"/>
<path d="M83.9095 62.3916C90.4931 69.6174 97.1946 76.7388 104.406 83.3431C105.322 84.185 106.818 82.9223 105.887 82.0752C98.6791 75.4751 91.978 68.3498 85.3943 61.124C84.5447 60.193 83.0599 61.4606 83.9092 62.3955L83.9095 62.3916Z" fill="#C40000"/>
<path d="M76.2649 74.6587L93.1391 93.4466C93.9803 94.3848 95.4652 93.1171 94.6243 92.175L77.7462 73.3868C76.9046 72.4525 75.42 73.7162 76.2649 74.6587Z" fill="#C40000"/>
<path d="M76.2487 73.5729L59.9813 95.9687C59.2432 96.9907 60.8453 98.1093 61.5832 97.0912L77.8311 74.6938C78.5732 73.6721 76.971 72.5535 76.2332 73.5716L76.2487 73.5729Z" fill="#C40000"/>
<path d="M63.4172 64.3521L46.5239 87.0468C45.7708 88.0597 47.3729 89.1783 48.1257 88.1693L65.0196 65.4668C65.7727 64.4539 64.1706 63.3353 63.4178 64.3443L63.4172 64.3521Z" fill="#C40000"/>
<path d="M41.952 40.2269C48.8247 48.9668 56.0242 57.4173 63.5503 65.5784L64.8377 64.1372L64.0462 63.6083C63.0025 62.9053 61.8857 64.5139 62.9337 65.2133L63.7248 65.7461C64.6202 66.3465 65.8 65.1286 65.0122 64.3049C57.4805 56.1486 50.2823 47.6995 43.4175 38.9576C42.6395 37.9615 41.1578 39.2374 41.9326 40.2253L41.952 40.2269Z" fill="#C40000"/>
<path d="M53.6803 30.8107C60.6427 38.4114 67.6048 46.016 74.5666 53.6244C75.4163 54.5555 76.9012 53.2878 76.0476 52.3565C69.0854 44.7532 62.1234 37.1473 55.1616 29.5389C54.3116 28.6117 52.8268 29.8794 53.6803 30.8107Z" fill="#C40000"/>
<path d="M43.5708 39.1467C42.0032 36.5085 42.2741 32.9304 44.6799 30.8999C47.1608 28.8085 51.3149 28.3174 53.6837 30.8165C54.5469 31.725 56.0354 30.4616 55.165 29.5446C52.1669 26.3961 47.2086 26.5697 43.839 29.0646C40.4695 31.5595 39.6715 36.4126 41.8019 39.9978C42.4446 41.0732 44.2048 40.2333 43.5592 39.1458L43.5708 39.1467Z" fill="#C40000"/>
<path d="M94.1932 32.595C96.2981 30.1623 99.9569 29.9967 102.49 32.0015C103.22 32.5751 103.794 33.3238 104.162 34.1788C104.529 35.0338 104.677 35.9676 104.591 36.8943C104.449 38.3936 103.574 39.471 102.66 40.5963C101.866 41.5781 103.476 42.6931 104.261 41.7185C105.705 39.9321 106.687 38.2379 106.535 35.853C106.461 34.7884 106.162 33.7516 105.656 32.8124C105.151 31.8733 104.451 31.0536 103.605 30.4086C101.985 29.1207 99.934 28.5126 97.8809 28.7118C95.8278 28.9109 93.9323 29.9017 92.5916 31.4767C91.7693 32.4286 93.3789 33.5436 94.1925 32.6028L94.1932 32.595Z" fill="#C40000"/>
<path d="M92.9148 93.2014C95.9736 96.5241 102.032 97.6758 105.652 94.493C109.132 91.4366 109.067 85.2225 105.874 82.0738C104.985 81.1946 103.496 82.4581 104.393 83.3418C106.817 85.7352 107.102 90.5863 104.389 92.9971C101.608 95.4653 96.7308 94.4651 94.3962 91.9295C93.5459 91.0063 92.0574 92.2698 92.9148 93.2014Z" fill="#C40000"/>
<path d="M46.36 87.3012C43.7508 91.6635 45.0194 97.3415 49.5441 99.8273C54.0688 102.313 59.0268 100.601 61.9908 96.5514C62.7363 95.5304 61.131 94.4119 60.39 95.4254C58.1394 98.5148 54.5499 100.035 50.9471 98.3565C50.0601 97.9471 49.2695 97.3526 48.6279 96.6125C47.9863 95.8724 47.5084 95.0037 47.2259 94.0642C46.9435 93.1246 46.863 92.1357 46.9897 91.1631C47.1165 90.1905 47.4476 89.2565 47.9611 88.4233C48.6055 87.3468 47.0086 86.2212 46.36 87.3012Z" fill="#C40000"/>
<path d="M77.2776 116.963C84.2541 117.266 91.1171 115.109 96.6846 110.864C97.7531 110.047 96.6846 108.201 95.6202 109.03C90.3696 113.069 83.8782 115.124 77.2776 114.837C75.9218 114.781 75.9218 116.908 77.2776 116.963Z" fill="#D1E4E8"/>
<path d="M123.343 56.356C124.557 63.1929 123.912 70.2332 121.477 76.731C121.004 78.0071 123.044 78.5686 123.512 77.2968C126.053 70.4265 126.698 62.9916 125.379 55.7817C125.138 54.4333 123.103 55.0033 123.343 56.3475V56.356Z" fill="#D1E4E8"/>
<path d="M55.6765 18.0815C59.3043 15.7567 63.4765 14.4363 67.7726 14.2532C69.1283 14.1894 69.1325 12.0626 67.7726 12.1264C63.1029 12.3152 58.5646 13.7366 54.6122 16.2482C53.4634 16.9756 54.5235 18.8004 55.6765 18.0858V18.0815Z" fill="#D1E4E8"/>
<path d="M27.1136 82.042C28.1254 85.8132 29.9479 89.3144 32.4521 92.2976C33.3264 93.3482 34.813 91.8339 33.943 90.7918C31.686 88.0783 30.0495 84.8979 29.1493 81.4763C28.7946 80.1534 26.7588 80.7149 27.1136 82.042Z" fill="#D1E4E8"/>
</svg>
